<?xml version="1.0" encoding="utf-8" standalone="no"?>
<!DOCTYPE svg PUBLIC "-//W3C//DTD SVG 1.1//EN"
  "http://www.w3.org/Graphics/SVG/1.1/DTD/svg11.dtd">
<!-- Created with matplotlib (http://matplotlib.org/) -->
<svg height="504pt" version="1.1" viewBox="0 0 504 504" width="504pt" xmlns="http://www.w3.org/2000/svg" xmlns:xlink="http://www.w3.org/1999/xlink">
 <defs>
  <style type="text/css">
*{stroke-linecap:butt;stroke-linejoin:round;}
  </style>
 </defs>
 <g id="figure_1">
  <g id="patch_1">
   <path d="M 0 504 
L 504 504 
L 504 0 
L 0 0 
z
" style="fill:none;"/>
  </g>
  <g id="axes_1">
   <g id="patch_2">
    <path d="M 63 441 
L 453.6 441 
L 453.6 60.48 
L 63 60.48 
z
" style="fill:none;"/>
   </g>
   <g id="matplotlib.axis_1">
    <g id="xtick_1">
     <g id="line2d_1">
      <defs>
       <path d="M 0 0 
L 0 3.5 
" id="m9ca0b32a2a" style="stroke:#000000;stroke-width:0.8;"/>
      </defs>
      <g>
       <use style="stroke:#000000;stroke-width:0.8;" x="121.726573" xlink:href="#m9ca0b32a2a" y="441"/>
      </g>
     </g>
     <g id="text_1">
      <!-- −1 -->
      <defs>
       <path d="M 10.59375 35.5 
L 73.1875 35.5 
L 73.1875 27.203125 
L 10.59375 27.203125 
z
" id="DejaVuSans-2212"/>
       <path d="M 12.40625 8.296875 
L 28.515625 8.296875 
L 28.515625 63.921875 
L 10.984375 60.40625 
L 10.984375 69.390625 
L 28.421875 72.90625 
L 38.28125 72.90625 
L 38.28125 8.296875 
L 54.390625 8.296875 
L 54.390625 0 
L 12.40625 0 
z
" id="DejaVuSans-31"/>
      </defs>
      <g transform="translate(114.35548 455.598437)scale(0.1 -0.1)">
       <use xlink:href="#DejaVuSans-2212"/>
       <use x="83.789062" xlink:href="#DejaVuSans-31"/>
      </g>
     </g>
    </g>
    <g id="xtick_2">
     <g id="line2d_2">
      <g>
       <use style="stroke:#000000;stroke-width:0.8;" x="258.3" xlink:href="#m9ca0b32a2a" y="441"/>
      </g>
     </g>
     <g id="text_2">
      <!-- 0 -->
      <defs>
       <path d="M 31.78125 66.40625 
Q 24.171875 66.40625 20.328125 58.90625 
Q 16.5 51.421875 16.5 36.375 
Q 16.5 21.390625 20.328125 13.890625 
Q 24.171875 6.390625 31.78125 6.390625 
Q 39.453125 6.390625 43.28125 13.890625 
Q 47.125 21.390625 47.125 36.375 
Q 47.125 51.421875 43.28125 58.90625 
Q 39.453125 66.40625 31.78125 66.40625 
z
M 31.78125 74.21875 
Q 44.046875 74.21875 50.515625 64.515625 
Q 56.984375 54.828125 56.984375 36.375 
Q 56.984375 17.96875 50.515625 8.265625 
Q 44.046875 -1.421875 31.78125 -1.421875 
Q 19.53125 -1.421875 13.0625 8.265625 
Q 6.59375 17.96875 6.59375 36.375 
Q 6.59375 54.828125 13.0625 64.515625 
Q 19.53125 74.21875 31.78125 74.21875 
z
" id="DejaVuSans-30"/>
      </defs>
      <g transform="translate(255.11875 455.598437)scale(0.1 -0.1)">
       <use xlink:href="#DejaVuSans-30"/>
      </g>
     </g>
    </g>
    <g id="xtick_3">
     <g id="line2d_3">
      <g>
       <use style="stroke:#000000;stroke-width:0.8;" x="394.873427" xlink:href="#m9ca0b32a2a" y="441"/>
      </g>
     </g>
     <g id="text_3">
      <!-- 1 -->
      <g transform="translate(391.692177 455.598437)scale(0.1 -0.1)">
       <use xlink:href="#DejaVuSans-31"/>
      </g>
     </g>
    </g>
    <g id="text_4">
     <!-- $x$ -->
     <defs>
      <path d="M 60.015625 54.6875 
L 34.90625 27.875 
L 50.296875 0 
L 39.984375 0 
L 28.421875 21.6875 
L 8.296875 0 
L -2.59375 0 
L 24.3125 28.8125 
L 10.015625 54.6875 
L 20.3125 54.6875 
L 30.8125 34.90625 
L 49.125 54.6875 
z
" id="DejaVuSans-Oblique-78"/>
     </defs>
     <g transform="translate(252.3 476.875)scale(0.2 -0.2)">
      <use transform="translate(0 0.3125)" xlink:href="#DejaVuSans-Oblique-78"/>
     </g>
    </g>
   </g>
   <g id="matplotlib.axis_2">
    <g id="ytick_1">
     <g id="line2d_4">
      <defs>
       <path d="M 0 0 
L -3.5 0 
" id="mf79752de7e" style="stroke:#000000;stroke-width:0.8;"/>
      </defs>
      <g>
       <use style="stroke:#000000;stroke-width:0.8;" x="63" xlink:href="#mf79752de7e" y="441"/>
      </g>
     </g>
     <g id="text_5">
      <!-- −4 -->
      <defs>
       <path d="M 37.796875 64.3125 
L 12.890625 25.390625 
L 37.796875 25.390625 
z
M 35.203125 72.90625 
L 47.609375 72.90625 
L 47.609375 25.390625 
L 58.015625 25.390625 
L 58.015625 17.1875 
L 47.609375 17.1875 
L 47.609375 0 
L 37.796875 0 
L 37.796875 17.1875 
L 4.890625 17.1875 
L 4.890625 26.703125 
z
" id="DejaVuSans-34"/>
      </defs>
      <g transform="translate(41.257812 444.799219)scale(0.1 -0.1)">
       <use xlink:href="#DejaVuSans-2212"/>
       <use x="83.789062" xlink:href="#DejaVuSans-34"/>
      </g>
     </g>
    </g>
    <g id="ytick_2">
     <g id="line2d_5">
      <g>
       <use style="stroke:#000000;stroke-width:0.8;" x="63" xlink:href="#mf79752de7e" y="386.64"/>
      </g>
     </g>
     <g id="text_6">
      <!-- −3 -->
      <defs>
       <path d="M 40.578125 39.3125 
Q 47.65625 37.796875 51.625 33 
Q 55.609375 28.21875 55.609375 21.1875 
Q 55.609375 10.40625 48.1875 4.484375 
Q 40.765625 -1.421875 27.09375 -1.421875 
Q 22.515625 -1.421875 17.65625 -0.515625 
Q 12.796875 0.390625 7.625 2.203125 
L 7.625 11.71875 
Q 11.71875 9.328125 16.59375 8.109375 
Q 21.484375 6.890625 26.8125 6.890625 
Q 36.078125 6.890625 40.9375 10.546875 
Q 45.796875 14.203125 45.796875 21.1875 
Q 45.796875 27.640625 41.28125 31.265625 
Q 36.765625 34.90625 28.71875 34.90625 
L 20.21875 34.90625 
L 20.21875 43.015625 
L 29.109375 43.015625 
Q 36.375 43.015625 40.234375 45.921875 
Q 44.09375 48.828125 44.09375 54.296875 
Q 44.09375 59.90625 40.109375 62.90625 
Q 36.140625 65.921875 28.71875 65.921875 
Q 24.65625 65.921875 20.015625 65.03125 
Q 15.375 64.15625 9.8125 62.3125 
L 9.8125 71.09375 
Q 15.4375 72.65625 20.34375 73.4375 
Q 25.25 74.21875 29.59375 74.21875 
Q 40.828125 74.21875 47.359375 69.109375 
Q 53.90625 64.015625 53.90625 55.328125 
Q 53.90625 49.265625 50.4375 45.09375 
Q 46.96875 40.921875 40.578125 39.3125 
z
" id="DejaVuSans-33"/>
      </defs>
      <g transform="translate(41.257812 390.439219)scale(0.1 -0.1)">
       <use xlink:href="#DejaVuSans-2212"/>
       <use x="83.789062" xlink:href="#DejaVuSans-33"/>
      </g>
     </g>
    </g>
    <g id="ytick_3">
     <g id="line2d_6">
      <g>
       <use style="stroke:#000000;stroke-width:0.8;" x="63" xlink:href="#mf79752de7e" y="332.28"/>
      </g>
     </g>
     <g id="text_7">
      <!-- −2 -->
      <defs>
       <path d="M 19.1875 8.296875 
L 53.609375 8.296875 
L 53.609375 0 
L 7.328125 0 
L 7.328125 8.296875 
Q 12.9375 14.109375 22.625 23.890625 
Q 32.328125 33.6875 34.8125 36.53125 
Q 39.546875 41.84375 41.421875 45.53125 
Q 43.3125 49.21875 43.3125 52.78125 
Q 43.3125 58.59375 39.234375 62.25 
Q 35.15625 65.921875 28.609375 65.921875 
Q 23.96875 65.921875 18.8125 64.3125 
Q 13.671875 62.703125 7.8125 59.421875 
L 7.8125 69.390625 
Q 13.765625 71.78125 18.9375 73 
Q 24.125 74.21875 28.421875 74.21875 
Q 39.75 74.21875 46.484375 68.546875 
Q 53.21875 62.890625 53.21875 53.421875 
Q 53.21875 48.921875 51.53125 44.890625 
Q 49.859375 40.875 45.40625 35.40625 
Q 44.1875 33.984375 37.640625 27.21875 
Q 31.109375 20.453125 19.1875 8.296875 
z
" id="DejaVuSans-32"/>
      </defs>
      <g transform="translate(41.257812 336.079219)scale(0.1 -0.1)">
       <use xlink:href="#DejaVuSans-2212"/>
       <use x="83.789062" xlink:href="#DejaVuSans-32"/>
      </g>
     </g>
    </g>
    <g id="ytick_4">
     <g id="line2d_7">
      <g>
       <use style="stroke:#000000;stroke-width:0.8;" x="63" xlink:href="#mf79752de7e" y="277.92"/>
      </g>
     </g>
     <g id="text_8">
      <!-- −1 -->
      <g transform="translate(41.257812 281.719219)scale(0.1 -0.1)">
       <use xlink:href="#DejaVuSans-2212"/>
       <use x="83.789062" xlink:href="#DejaVuSans-31"/>
      </g>
     </g>
    </g>
    <g id="ytick_5">
     <g id="line2d_8">
      <g>
       <use style="stroke:#000000;stroke-width:0.8;" x="63" xlink:href="#mf79752de7e" y="223.56"/>
      </g>
     </g>
     <g id="text_9">
      <!-- 0 -->
      <g transform="translate(49.6375 227.359219)scale(0.1 -0.1)">
       <use xlink:href="#DejaVuSans-30"/>
      </g>
     </g>
    </g>
    <g id="ytick_6">
     <g id="line2d_9">
      <g>
       <use style="stroke:#000000;stroke-width:0.8;" x="63" xlink:href="#mf79752de7e" y="169.2"/>
      </g>
     </g>
     <g id="text_10">
      <!-- 1 -->
      <g transform="translate(49.6375 172.999219)scale(0.1 -0.1)">
       <use xlink:href="#DejaVuSans-31"/>
      </g>
     </g>
    </g>
    <g id="ytick_7">
     <g id="line2d_10">
      <g>
       <use style="stroke:#000000;stroke-width:0.8;" x="63" xlink:href="#mf79752de7e" y="114.84"/>
      </g>
     </g>
     <g id="text_11">
      <!-- 2 -->
      <g transform="translate(49.6375 118.639219)scale(0.1 -0.1)">
       <use xlink:href="#DejaVuSans-32"/>
      </g>
     </g>
    </g>
    <g id="ytick_8">
     <g id="line2d_11">
      <g>
       <use style="stroke:#000000;stroke-width:0.8;" x="63" xlink:href="#mf79752de7e" y="60.48"/>
      </g>
     </g>
     <g id="text_12">
      <!-- 3 -->
      <g transform="translate(49.6375 64.279219)scale(0.1 -0.1)">
       <use xlink:href="#DejaVuSans-33"/>
      </g>
     </g>
    </g>
    <g id="text_13">
     <!-- $f(x)$ -->
     <defs>
      <path d="M 47.796875 75.984375 
L 46.390625 68.5 
L 37.796875 68.5 
Q 32.90625 68.5 30.6875 66.578125 
Q 28.46875 64.65625 27.390625 59.515625 
L 26.421875 54.6875 
L 41.21875 54.6875 
L 39.890625 47.703125 
L 25.09375 47.703125 
L 15.828125 0 
L 6.78125 0 
L 16.109375 47.703125 
L 7.515625 47.703125 
L 8.796875 54.6875 
L 17.390625 54.6875 
L 18.109375 58.5 
Q 19.96875 68.171875 24.625 72.078125 
Q 29.296875 75.984375 39.3125 75.984375 
z
" id="DejaVuSans-Oblique-66"/>
      <path d="M 31 75.875 
Q 24.46875 64.65625 21.28125 53.65625 
Q 18.109375 42.671875 18.109375 31.390625 
Q 18.109375 20.125 21.3125 9.0625 
Q 24.515625 -2 31 -13.1875 
L 23.1875 -13.1875 
Q 15.875 -1.703125 12.234375 9.375 
Q 8.59375 20.453125 8.59375 31.390625 
Q 8.59375 42.28125 12.203125 53.3125 
Q 15.828125 64.359375 23.1875 75.875 
z
" id="DejaVuSans-28"/>
      <path d="M 8.015625 75.875 
L 15.828125 75.875 
Q 23.140625 64.359375 26.78125 53.3125 
Q 30.421875 42.28125 30.421875 31.390625 
Q 30.421875 20.453125 26.78125 9.375 
Q 23.140625 -1.703125 15.828125 -13.1875 
L 8.015625 -13.1875 
Q 14.5 -2 17.703125 9.0625 
Q 20.90625 20.125 20.90625 31.390625 
Q 20.90625 42.671875 17.703125 53.65625 
Q 14.5 64.65625 8.015625 75.875 
z
" id="DejaVuSans-29"/>
     </defs>
     <g transform="translate(33.098438 268.04)rotate(-90)scale(0.2 -0.2)">
      <use transform="translate(0 0.015625)" xlink:href="#DejaVuSans-Oblique-66"/>
      <use transform="translate(35.205078 0.015625)" xlink:href="#DejaVuSans-28"/>
      <use transform="translate(74.21875 0.015625)" xlink:href="#DejaVuSans-Oblique-78"/>
      <use transform="translate(133.398438 0.015625)" xlink:href="#DejaVuSans-29"/>
     </g>
    </g>
   </g>
   <g id="line2d_12">
    <path clip-path="url(#p54ebf126b9)" d="M 80.754545 248.419515 
L 84.341322 242.644515 
L 87.928099 236.994617 
L 91.514876 231.469821 
L 95.101653 226.070128 
L 98.68843 220.795536 
L 102.275207 215.646046 
L 105.861983 210.621659 
L 109.44876 205.722373 
L 113.035537 200.94819 
L 116.622314 196.299108 
L 120.209091 191.775129 
L 123.795868 187.376252 
L 127.382645 183.102476 
L 130.969421 178.953803 
L 134.556198 174.930232 
L 138.142975 171.031763 
L 141.729752 167.258396 
L 145.316529 163.610131 
L 148.903306 160.086968 
L 152.490083 156.688907 
L 156.07686 153.415948 
L 159.663636 150.268091 
L 163.250413 147.245336 
L 166.83719 144.347684 
L 170.423967 141.575133 
L 174.010744 138.927684 
L 177.597521 136.405338 
L 181.184298 134.008093 
L 184.771074 131.735951 
L 188.357851 129.58891 
L 191.944628 127.566972 
L 195.531405 125.670136 
L 199.118182 123.898401 
L 202.704959 122.251769 
L 206.291736 120.730239 
L 209.878512 119.333811 
L 213.465289 118.062484 
L 217.052066 116.91626 
L 220.638843 115.895138 
L 224.22562 114.999118 
L 227.812397 114.228201 
L 231.399174 113.582385 
L 234.98595 113.061671 
L 238.572727 112.666059 
L 242.159504 112.395549 
L 245.746281 112.250142 
L 249.333058 112.229836 
L 252.919835 112.334632 
L 256.506612 112.564531 
L 260.093388 112.919531 
L 263.680165 113.399634 
L 267.266942 114.004839 
L 270.853719 114.735145 
L 274.440496 115.590554 
L 278.027273 116.571065 
L 281.61405 117.676678 
L 285.200826 118.907392 
L 288.787603 120.263209 
L 292.37438 121.744128 
L 295.961157 123.350149 
L 299.547934 125.081272 
L 303.134711 126.937497 
L 306.721488 128.918825 
L 310.308264 131.025254 
L 313.895041 133.256785 
L 317.481818 135.613418 
L 321.068595 138.095154 
L 324.655372 140.701991 
L 328.242149 143.43393 
L 331.828926 146.290972 
L 335.415702 149.273115 
L 339.002479 152.380361 
L 342.589256 155.612709 
L 346.176033 158.970158 
L 349.76281 162.45271 
L 353.349587 166.060364 
L 356.936364 169.79312 
L 360.52314 173.650977 
L 364.109917 177.633937 
L 367.696694 181.741999 
L 371.283471 185.975163 
L 374.870248 190.333429 
L 378.457025 194.816797 
L 382.043802 199.425268 
L 385.630579 204.15884 
L 389.217355 209.017514 
L 392.804132 214.00129 
L 396.390909 219.110169 
L 399.977686 224.344149 
L 403.564463 229.703231 
L 407.15124 235.187416 
L 410.738017 240.796703 
L 414.324793 246.531091 
L 417.91157 252.390582 
L 421.498347 258.375174 
L 425.085124 264.484869 
L 428.671901 270.719666 
L 432.258678 277.079565 
L 435.845455 283.564566 
" style="fill:none;stroke:#0000ff;stroke-linecap:square;stroke-width:3;"/>
   </g>
   <g id="line2d_13">
    <path clip-path="url(#p54ebf126b9)" d="M 80.754545 169.2 
L 84.341322 169.2 
L 87.928099 169.2 
L 91.514876 169.2 
L 95.101653 169.2 
L 98.68843 169.2 
L 102.275207 169.2 
L 105.861983 169.2 
L 109.44876 169.2 
L 113.035537 169.2 
L 116.622314 169.2 
L 120.209091 169.2 
L 123.795868 169.2 
L 127.382645 169.2 
L 130.969421 169.2 
L 134.556198 169.2 
L 138.142975 169.2 
L 141.729752 169.2 
L 145.316529 169.2 
L 148.903306 169.2 
L 152.490083 169.2 
L 156.07686 169.2 
L 159.663636 169.2 
L 163.250413 169.2 
L 166.83719 169.2 
L 170.423967 169.2 
L 174.010744 169.2 
L 177.597521 169.2 
L 181.184298 169.2 
L 184.771074 169.2 
L 188.357851 169.2 
L 191.944628 169.2 
L 195.531405 169.2 
L 199.118182 169.2 
L 202.704959 169.2 
L 206.291736 169.2 
L 209.878512 169.2 
L 213.465289 169.2 
L 217.052066 169.2 
L 220.638843 169.2 
L 224.22562 169.2 
L 227.812397 169.2 
L 231.399174 169.2 
L 234.98595 169.2 
L 238.572727 169.2 
L 242.159504 169.2 
L 245.746281 169.2 
L 249.333058 169.2 
L 252.919835 169.2 
L 256.506612 169.2 
L 260.093388 169.2 
L 263.680165 169.2 
L 267.266942 169.2 
L 270.853719 169.2 
L 274.440496 169.2 
L 278.027273 169.2 
L 281.61405 169.2 
L 285.200826 169.2 
L 288.787603 169.2 
L 292.37438 169.2 
L 295.961157 169.2 
L 299.547934 169.2 
L 303.134711 169.2 
L 306.721488 169.2 
L 310.308264 169.2 
L 313.895041 169.2 
L 317.481818 169.2 
L 321.068595 169.2 
L 324.655372 169.2 
L 328.242149 169.2 
L 331.828926 169.2 
L 335.415702 169.2 
L 339.002479 169.2 
L 342.589256 169.2 
L 346.176033 169.2 
L 349.76281 169.2 
L 353.349587 169.2 
L 356.936364 169.2 
L 360.52314 169.2 
L 364.109917 169.2 
L 367.696694 169.2 
L 371.283471 169.2 
L 374.870248 169.2 
L 378.457025 169.2 
L 382.043802 169.2 
L 385.630579 169.2 
L 389.217355 169.2 
L 392.804132 169.2 
L 396.390909 169.2 
L 399.977686 169.2 
L 403.564463 169.2 
L 407.15124 169.2 
L 410.738017 169.2 
L 414.324793 169.2 
L 417.91157 169.2 
L 421.498347 169.2 
L 425.085124 169.2 
L 428.671901 169.2 
L 432.258678 169.2 
L 435.845455 169.2 
" style="fill:none;stroke:#ff0000;stroke-linecap:square;"/>
   </g>
   <g id="line2d_14">
    <path clip-path="url(#p54ebf126b9)" d="M 80.754545 294.228 
L 84.341322 292.800364 
L 87.928099 291.372727 
L 91.514876 289.945091 
L 95.101653 288.517455 
L 98.68843 287.089818 
L 102.275207 285.662182 
L 105.861983 284.234545 
L 109.44876 282.806909 
L 113.035537 281.379273 
L 116.622314 279.951636 
L 120.209091 278.524 
L 123.795868 277.096364 
L 127.382645 275.668727 
L 130.969421 274.241091 
L 134.556198 272.813455 
L 138.142975 271.385818 
L 141.729752 269.958182 
L 145.316529 268.530545 
L 148.903306 267.102909 
L 152.490083 265.675273 
L 156.07686 264.247636 
L 159.663636 262.82 
L 163.250413 261.392364 
L 166.83719 259.964727 
L 170.423967 258.537091 
L 174.010744 257.109455 
L 177.597521 255.681818 
L 181.184298 254.254182 
L 184.771074 252.826545 
L 188.357851 251.398909 
L 191.944628 249.971273 
L 195.531405 248.543636 
L 199.118182 247.116 
L 202.704959 245.688364 
L 206.291736 244.260727 
L 209.878512 242.833091 
L 213.465289 241.405455 
L 217.052066 239.977818 
L 220.638843 238.550182 
L 224.22562 237.122545 
L 227.812397 235.694909 
L 231.399174 234.267273 
L 234.98595 232.839636 
L 238.572727 231.412 
L 242.159504 229.984364 
L 245.746281 228.556727 
L 249.333058 227.129091 
L 252.919835 225.701455 
L 256.506612 224.273818 
L 260.093388 222.846182 
L 263.680165 221.418545 
L 267.266942 219.990909 
L 270.853719 218.563273 
L 274.440496 217.135636 
L 278.027273 215.708 
L 281.61405 214.280364 
L 285.200826 212.852727 
L 288.787603 211.425091 
L 292.37438 209.997455 
L 295.961157 208.569818 
L 299.547934 207.142182 
L 303.134711 205.714545 
L 306.721488 204.286909 
L 310.308264 202.859273 
L 313.895041 201.431636 
L 317.481818 200.004 
L 321.068595 198.576364 
L 324.655372 197.148727 
L 328.242149 195.721091 
L 331.828926 194.293455 
L 335.415702 192.865818 
L 339.002479 191.438182 
L 342.589256 190.010545 
L 346.176033 188.582909 
L 349.76281 187.155273 
L 353.349587 185.727636 
L 356.936364 184.3 
L 360.52314 182.872364 
L 364.109917 181.444727 
L 367.696694 180.017091 
L 371.283471 178.589455 
L 374.870248 177.161818 
L 378.457025 175.734182 
L 382.043802 174.306545 
L 385.630579 172.878909 
L 389.217355 171.451273 
L 392.804132 170.023636 
L 396.390909 168.596 
L 399.977686 167.168364 
L 403.564463 165.740727 
L 407.15124 164.313091 
L 410.738017 162.885455 
L 414.324793 161.457818 
L 417.91157 160.030182 
L 421.498347 158.602545 
L 425.085124 157.174909 
L 428.671901 155.747273 
L 432.258678 154.319636 
L 435.845455 152.892 
" style="fill:none;stroke:#ff00ff;stroke-linecap:square;"/>
   </g>
   <g id="line2d_15">
    <path clip-path="url(#p54ebf126b9)" d="M 80.754545 131.6916 
L 84.341322 135.365961 
L 87.928099 138.965335 
L 91.514876 142.489722 
L 95.101653 145.939122 
L 98.68843 149.313536 
L 102.275207 152.612962 
L 105.861983 155.837401 
L 109.44876 158.986854 
L 113.035537 162.061319 
L 116.622314 165.060797 
L 120.209091 167.985289 
L 123.795868 170.834793 
L 127.382645 173.609311 
L 130.969421 176.308842 
L 134.556198 178.933385 
L 138.142975 181.482942 
L 141.729752 183.957511 
L 145.316529 186.357094 
L 148.903306 188.68169 
L 152.490083 190.931299 
L 156.07686 193.105921 
L 159.663636 195.205556 
L 163.250413 197.230203 
L 166.83719 199.179864 
L 170.423967 201.054538 
L 174.010744 202.854226 
L 177.597521 204.578926 
L 181.184298 206.228639 
L 184.771074 207.803365 
L 188.357851 209.303104 
L 191.944628 210.727856 
L 195.531405 212.077622 
L 199.118182 213.3524 
L 202.704959 214.552191 
L 206.291736 215.676996 
L 209.878512 216.726813 
L 213.465289 217.701644 
L 217.052066 218.601487 
L 220.638843 219.426344 
L 224.22562 220.176213 
L 227.812397 220.851096 
L 231.399174 221.450992 
L 234.98595 221.9759 
L 238.572727 222.425822 
L 242.159504 222.800757 
L 245.746281 223.100705 
L 249.333058 223.325666 
L 252.919835 223.47564 
L 256.506612 223.550627 
L 260.093388 223.550627 
L 263.680165 223.47564 
L 267.266942 223.325666 
L 270.853719 223.100705 
L 274.440496 222.800757 
L 278.027273 222.425822 
L 281.61405 221.9759 
L 285.200826 221.450992 
L 288.787603 220.851096 
L 292.37438 220.176213 
L 295.961157 219.426344 
L 299.547934 218.601487 
L 303.134711 217.701644 
L 306.721488 216.726813 
L 310.308264 215.676996 
L 313.895041 214.552191 
L 317.481818 213.3524 
L 321.068595 212.077622 
L 324.655372 210.727856 
L 328.242149 209.303104 
L 331.828926 207.803365 
L 335.415702 206.228639 
L 339.002479 204.578926 
L 342.589256 202.854226 
L 346.176033 201.054538 
L 349.76281 199.179864 
L 353.349587 197.230203 
L 356.936364 195.205556 
L 360.52314 193.105921 
L 364.109917 190.931299 
L 367.696694 188.68169 
L 371.283471 186.357094 
L 374.870248 183.957511 
L 378.457025 181.482942 
L 382.043802 178.933385 
L 385.630579 176.308842 
L 389.217355 173.609311 
L 392.804132 170.834793 
L 396.390909 167.985289 
L 399.977686 165.060797 
L 403.564463 162.061319 
L 407.15124 158.986854 
L 410.738017 155.837401 
L 414.324793 152.612962 
L 417.91157 149.313536 
L 421.498347 145.939122 
L 425.085124 142.489722 
L 428.671901 138.965335 
L 432.258678 135.365961 
L 435.845455 131.6916 
" style="fill:none;stroke:#0000ff;stroke-linecap:square;"/>
   </g>
   <g id="patch_3">
    <path d="M 63 441 
L 63 60.48 
" style="fill:none;stroke:#000000;stroke-linecap:square;stroke-linejoin:miter;stroke-width:0.8;"/>
   </g>
   <g id="patch_4">
    <path d="M 453.6 441 
L 453.6 60.48 
" style="fill:none;stroke:#000000;stroke-linecap:square;stroke-linejoin:miter;stroke-width:0.8;"/>
   </g>
   <g id="patch_5">
    <path d="M 63 441 
L 453.6 441 
" style="fill:none;stroke:#000000;stroke-linecap:square;stroke-linejoin:miter;stroke-width:0.8;"/>
   </g>
   <g id="patch_6">
    <path d="M 63 60.48 
L 453.6 60.48 
" style="fill:none;stroke:#000000;stroke-linecap:square;stroke-linejoin:miter;stroke-width:0.8;"/>
   </g>
   <g id="text_14">
    <!-- $w_0 = [2.03888165]$ -->
    <defs>
     <path d="M 8.5 54.6875 
L 17.390625 54.6875 
L 19.671875 10.6875 
L 40.09375 54.6875 
L 50.484375 54.6875 
L 53.515625 10.6875 
L 72.90625 54.6875 
L 81.890625 54.6875 
L 56.890625 0 
L 46.390625 0 
L 43.703125 45.3125 
L 22.796875 0 
L 12.203125 0 
z
" id="DejaVuSans-Oblique-77"/>
     <path d="M 10.59375 45.40625 
L 73.1875 45.40625 
L 73.1875 37.203125 
L 10.59375 37.203125 
z
M 10.59375 25.484375 
L 73.1875 25.484375 
L 73.1875 17.1875 
L 10.59375 17.1875 
z
" id="DejaVuSans-3d"/>
     <path d="M 8.59375 75.984375 
L 29.296875 75.984375 
L 29.296875 69 
L 17.578125 69 
L 17.578125 -6.203125 
L 29.296875 -6.203125 
L 29.296875 -13.1875 
L 8.59375 -13.1875 
z
" id="DejaVuSans-5b"/>
     <path d="M 10.6875 12.40625 
L 21 12.40625 
L 21 0 
L 10.6875 0 
z
" id="DejaVuSans-2e"/>
     <path d="M 31.78125 34.625 
Q 24.75 34.625 20.71875 30.859375 
Q 16.703125 27.09375 16.703125 20.515625 
Q 16.703125 13.921875 20.71875 10.15625 
Q 24.75 6.390625 31.78125 6.390625 
Q 38.8125 6.390625 42.859375 10.171875 
Q 46.921875 13.96875 46.921875 20.515625 
Q 46.921875 27.09375 42.890625 30.859375 
Q 38.875 34.625 31.78125 34.625 
z
M 21.921875 38.8125 
Q 15.578125 40.375 12.03125 44.71875 
Q 8.5 49.078125 8.5 55.328125 
Q 8.5 64.0625 14.71875 69.140625 
Q 20.953125 74.21875 31.78125 74.21875 
Q 42.671875 74.21875 48.875 69.140625 
Q 55.078125 64.0625 55.078125 55.328125 
Q 55.078125 49.078125 51.53125 44.71875 
Q 48 40.375 41.703125 38.8125 
Q 48.828125 37.15625 52.796875 32.3125 
Q 56.78125 27.484375 56.78125 20.515625 
Q 56.78125 9.90625 50.3125 4.234375 
Q 43.84375 -1.421875 31.78125 -1.421875 
Q 19.734375 -1.421875 13.25 4.234375 
Q 6.78125 9.90625 6.78125 20.515625 
Q 6.78125 27.484375 10.78125 32.3125 
Q 14.796875 37.15625 21.921875 38.8125 
z
M 18.3125 54.390625 
Q 18.3125 48.734375 21.84375 45.5625 
Q 25.390625 42.390625 31.78125 42.390625 
Q 38.140625 42.390625 41.71875 45.5625 
Q 45.3125 48.734375 45.3125 54.390625 
Q 45.3125 60.0625 41.71875 63.234375 
Q 38.140625 66.40625 31.78125 66.40625 
Q 25.390625 66.40625 21.84375 63.234375 
Q 18.3125 60.0625 18.3125 54.390625 
z
" id="DejaVuSans-38"/>
     <path d="M 33.015625 40.375 
Q 26.375 40.375 22.484375 35.828125 
Q 18.609375 31.296875 18.609375 23.390625 
Q 18.609375 15.53125 22.484375 10.953125 
Q 26.375 6.390625 33.015625 6.390625 
Q 39.65625 6.390625 43.53125 10.953125 
Q 47.40625 15.53125 47.40625 23.390625 
Q 47.40625 31.296875 43.53125 35.828125 
Q 39.65625 40.375 33.015625 40.375 
z
M 52.59375 71.296875 
L 52.59375 62.3125 
Q 48.875 64.0625 45.09375 64.984375 
Q 41.3125 65.921875 37.59375 65.921875 
Q 27.828125 65.921875 22.671875 59.328125 
Q 17.53125 52.734375 16.796875 39.40625 
Q 19.671875 43.65625 24.015625 45.921875 
Q 28.375 48.1875 33.59375 48.1875 
Q 44.578125 48.1875 50.953125 41.515625 
Q 57.328125 34.859375 57.328125 23.390625 
Q 57.328125 12.15625 50.6875 5.359375 
Q 44.046875 -1.421875 33.015625 -1.421875 
Q 20.359375 -1.421875 13.671875 8.265625 
Q 6.984375 17.96875 6.984375 36.375 
Q 6.984375 53.65625 15.1875 63.9375 
Q 23.390625 74.21875 37.203125 74.21875 
Q 40.921875 74.21875 44.703125 73.484375 
Q 48.484375 72.75 52.59375 71.296875 
z
" id="DejaVuSans-36"/>
     <path d="M 10.796875 72.90625 
L 49.515625 72.90625 
L 49.515625 64.59375 
L 19.828125 64.59375 
L 19.828125 46.734375 
Q 21.96875 47.46875 24.109375 47.828125 
Q 26.265625 48.1875 28.421875 48.1875 
Q 40.625 48.1875 47.75 41.5 
Q 54.890625 34.8125 54.890625 23.390625 
Q 54.890625 11.625 47.5625 5.09375 
Q 40.234375 -1.421875 26.90625 -1.421875 
Q 22.3125 -1.421875 17.546875 -0.640625 
Q 12.796875 0.140625 7.71875 1.703125 
L 7.71875 11.625 
Q 12.109375 9.234375 16.796875 8.0625 
Q 21.484375 6.890625 26.703125 6.890625 
Q 35.15625 6.890625 40.078125 11.328125 
Q 45.015625 15.765625 45.015625 23.390625 
Q 45.015625 31 40.078125 35.4375 
Q 35.15625 39.890625 26.703125 39.890625 
Q 22.75 39.890625 18.8125 39.015625 
Q 14.890625 38.140625 10.796875 36.28125 
z
" id="DejaVuSans-35"/>
     <path d="M 30.421875 75.984375 
L 30.421875 -13.1875 
L 9.71875 -13.1875 
L 9.71875 -6.203125 
L 21.390625 -6.203125 
L 21.390625 69 
L 9.71875 69 
L 9.71875 75.984375 
z
" id="DejaVuSans-5d"/>
    </defs>
    <g transform="translate(164.8 147.456)scale(0.2 -0.2)">
     <use transform="translate(0 0.015625)" xlink:href="#DejaVuSans-Oblique-77"/>
     <use transform="translate(81.787109 -16.390625)scale(0.7)" xlink:href="#DejaVuSans-30"/>
     <use transform="translate(148.540039 0.015625)" xlink:href="#DejaVuSans-3d"/>
     <use transform="translate(251.811523 0.015625)" xlink:href="#DejaVuSans-5b"/>
     <use transform="translate(290.825195 0.015625)" xlink:href="#DejaVuSans-32"/>
     <use transform="translate(354.448242 0.015625)" xlink:href="#DejaVuSans-2e"/>
     <use transform="translate(386.235352 0.015625)" xlink:href="#DejaVuSans-30"/>
     <use transform="translate(449.858398 0.015625)" xlink:href="#DejaVuSans-33"/>
     <use transform="translate(513.481445 0.015625)" xlink:href="#DejaVuSans-38"/>
     <use transform="translate(577.104492 0.015625)" xlink:href="#DejaVuSans-38"/>
     <use transform="translate(640.727539 0.015625)" xlink:href="#DejaVuSans-38"/>
     <use transform="translate(704.350586 0.015625)" xlink:href="#DejaVuSans-31"/>
     <use transform="translate(767.973633 0.015625)" xlink:href="#DejaVuSans-36"/>
     <use transform="translate(831.59668 0.015625)" xlink:href="#DejaVuSans-35"/>
     <use transform="translate(895.219727 0.015625)" xlink:href="#DejaVuSans-5d"/>
    </g>
   </g>
   <g id="text_15">
    <!-- $w_1 = [-0.24866312]$ -->
    <g transform="translate(156.5 261.612)scale(0.2 -0.2)">
     <use transform="translate(0 0.015625)" xlink:href="#DejaVuSans-Oblique-77"/>
     <use transform="translate(81.787109 -16.390625)scale(0.7)" xlink:href="#DejaVuSans-31"/>
     <use transform="translate(148.540039 0.015625)" xlink:href="#DejaVuSans-3d"/>
     <use transform="translate(251.811523 0.015625)" xlink:href="#DejaVuSans-5b"/>
     <use transform="translate(290.825195 0.015625)" xlink:href="#DejaVuSans-2212"/>
     <use transform="translate(374.614258 0.015625)" xlink:href="#DejaVuSans-30"/>
     <use transform="translate(438.237305 0.015625)" xlink:href="#DejaVuSans-2e"/>
     <use transform="translate(469.946289 0.015625)" xlink:href="#DejaVuSans-32"/>
     <use transform="translate(533.569336 0.015625)" xlink:href="#DejaVuSans-34"/>
     <use transform="translate(597.192383 0.015625)" xlink:href="#DejaVuSans-38"/>
     <use transform="translate(660.81543 0.015625)" xlink:href="#DejaVuSans-36"/>
     <use transform="translate(724.438477 0.015625)" xlink:href="#DejaVuSans-36"/>
     <use transform="translate(788.061523 0.015625)" xlink:href="#DejaVuSans-33"/>
     <use transform="translate(851.68457 0.015625)" xlink:href="#DejaVuSans-31"/>
     <use transform="translate(915.307617 0.015625)" xlink:href="#DejaVuSans-32"/>
     <use transform="translate(978.930664 0.015625)" xlink:href="#DejaVuSans-5d"/>
    </g>
   </g>
   <g id="text_16">
    <!-- $w_2 = [-1.66831736]$ -->
    <defs>
     <path d="M 8.203125 72.90625 
L 55.078125 72.90625 
L 55.078125 68.703125 
L 28.609375 0 
L 18.3125 0 
L 43.21875 64.59375 
L 8.203125 64.59375 
z
" id="DejaVuSans-37"/>
    </defs>
    <g transform="translate(258.83007 234.432)scale(0.2 -0.2)">
     <use transform="translate(0 0.015625)" xlink:href="#DejaVuSans-Oblique-77"/>
     <use transform="translate(81.787109 -16.390625)scale(0.7)" xlink:href="#DejaVuSans-32"/>
     <use transform="translate(148.540039 0.015625)" xlink:href="#DejaVuSans-3d"/>
     <use transform="translate(251.811523 0.015625)" xlink:href="#DejaVuSans-5b"/>
     <use transform="translate(290.825195 0.015625)" xlink:href="#DejaVuSans-2212"/>
     <use transform="translate(374.614258 0.015625)" xlink:href="#DejaVuSans-31"/>
     <use transform="translate(438.237305 0.015625)" xlink:href="#DejaVuSans-2e"/>
     <use transform="translate(470.024414 0.015625)" xlink:href="#DejaVuSans-36"/>
     <use transform="translate(533.647461 0.015625)" xlink:href="#DejaVuSans-36"/>
     <use transform="translate(597.270508 0.015625)" xlink:href="#DejaVuSans-38"/>
     <use transform="translate(660.893555 0.015625)" xlink:href="#DejaVuSans-33"/>
     <use transform="translate(724.516602 0.015625)" xlink:href="#DejaVuSans-31"/>
     <use transform="translate(788.139648 0.015625)" xlink:href="#DejaVuSans-37"/>
     <use transform="translate(851.762695 0.015625)" xlink:href="#DejaVuSans-33"/>
     <use transform="translate(915.385742 0.015625)" xlink:href="#DejaVuSans-36"/>
     <use transform="translate(979.008789 0.015625)" xlink:href="#DejaVuSans-5d"/>
    </g>
   </g>
  </g>
 </g>
 <defs>
  <clipPath id="p54ebf126b9">
   <rect height="380.52" width="390.6" x="63" y="60.48"/>
  </clipPath>
 </defs>
</svg>
