<?xml version="1.0" encoding="utf-8" standalone="no"?>
<!DOCTYPE svg PUBLIC "-//W3C//DTD SVG 1.1//EN"
  "http://www.w3.org/Graphics/SVG/1.1/DTD/svg11.dtd">
<!-- Created with matplotlib (http://matplotlib.org/) -->
<svg height="504pt" version="1.1" viewBox="0 0 504 504" width="504pt" xmlns="http://www.w3.org/2000/svg" xmlns:xlink="http://www.w3.org/1999/xlink">
 <defs>
  <style type="text/css">
*{stroke-linecap:butt;stroke-linejoin:round;}
  </style>
 </defs>
 <g id="figure_1">
  <g id="patch_1">
   <path d="M 0 504 
L 504 504 
L 504 0 
L 0 0 
z
" style="fill:none;"/>
  </g>
  <g id="axes_1">
   <g id="patch_2">
    <path d="M 63 441 
L 453.6 441 
L 453.6 60.48 
L 63 60.48 
z
" style="fill:none;"/>
   </g>
   <g id="matplotlib.axis_1">
    <g id="xtick_1">
     <g id="line2d_1">
      <defs>
       <path d="M 0 0 
L 0 3.5 
" id="m4e6d16d4ce" style="stroke:#000000;stroke-width:0.8;"/>
      </defs>
      <g>
       <use style="stroke:#000000;stroke-width:0.8;" x="169.527273" xlink:href="#m4e6d16d4ce" y="441"/>
      </g>
     </g>
     <g id="text_1">
      <!-- −1 -->
      <defs>
       <path d="M 10.59375 35.5 
L 73.1875 35.5 
L 73.1875 27.203125 
L 10.59375 27.203125 
z
" id="DejaVuSans-2212"/>
       <path d="M 12.40625 8.296875 
L 28.515625 8.296875 
L 28.515625 63.921875 
L 10.984375 60.40625 
L 10.984375 69.390625 
L 28.421875 72.90625 
L 38.28125 72.90625 
L 38.28125 8.296875 
L 54.390625 8.296875 
L 54.390625 0 
L 12.40625 0 
z
" id="DejaVuSans-31"/>
      </defs>
      <g transform="translate(162.156179 455.598437)scale(0.1 -0.1)">
       <use xlink:href="#DejaVuSans-2212"/>
       <use x="83.789062" xlink:href="#DejaVuSans-31"/>
      </g>
     </g>
    </g>
    <g id="xtick_2">
     <g id="line2d_2">
      <g>
       <use style="stroke:#000000;stroke-width:0.8;" x="258.3" xlink:href="#m4e6d16d4ce" y="441"/>
      </g>
     </g>
     <g id="text_2">
      <!-- 0 -->
      <defs>
       <path d="M 31.78125 66.40625 
Q 24.171875 66.40625 20.328125 58.90625 
Q 16.5 51.421875 16.5 36.375 
Q 16.5 21.390625 20.328125 13.890625 
Q 24.171875 6.390625 31.78125 6.390625 
Q 39.453125 6.390625 43.28125 13.890625 
Q 47.125 21.390625 47.125 36.375 
Q 47.125 51.421875 43.28125 58.90625 
Q 39.453125 66.40625 31.78125 66.40625 
z
M 31.78125 74.21875 
Q 44.046875 74.21875 50.515625 64.515625 
Q 56.984375 54.828125 56.984375 36.375 
Q 56.984375 17.96875 50.515625 8.265625 
Q 44.046875 -1.421875 31.78125 -1.421875 
Q 19.53125 -1.421875 13.0625 8.265625 
Q 6.59375 17.96875 6.59375 36.375 
Q 6.59375 54.828125 13.0625 64.515625 
Q 19.53125 74.21875 31.78125 74.21875 
z
" id="DejaVuSans-30"/>
      </defs>
      <g transform="translate(255.11875 455.598437)scale(0.1 -0.1)">
       <use xlink:href="#DejaVuSans-30"/>
      </g>
     </g>
    </g>
    <g id="xtick_3">
     <g id="line2d_3">
      <g>
       <use style="stroke:#000000;stroke-width:0.8;" x="347.072727" xlink:href="#m4e6d16d4ce" y="441"/>
      </g>
     </g>
     <g id="text_3">
      <!-- 1 -->
      <g transform="translate(343.891477 455.598437)scale(0.1 -0.1)">
       <use xlink:href="#DejaVuSans-31"/>
      </g>
     </g>
    </g>
    <g id="text_4">
     <!-- $x$ -->
     <defs>
      <path d="M 60.015625 54.6875 
L 34.90625 27.875 
L 50.296875 0 
L 39.984375 0 
L 28.421875 21.6875 
L 8.296875 0 
L -2.59375 0 
L 24.3125 28.8125 
L 10.015625 54.6875 
L 20.3125 54.6875 
L 30.8125 34.90625 
L 49.125 54.6875 
z
" id="DejaVuSans-Oblique-78"/>
     </defs>
     <g transform="translate(252.3 476.875)scale(0.2 -0.2)">
      <use transform="translate(0 0.3125)" xlink:href="#DejaVuSans-Oblique-78"/>
     </g>
    </g>
   </g>
   <g id="matplotlib.axis_2">
    <g id="ytick_1">
     <g id="line2d_4">
      <defs>
       <path d="M 0 0 
L -3.5 0 
" id="mdfbd4e7a3a" style="stroke:#000000;stroke-width:0.8;"/>
      </defs>
      <g>
       <use style="stroke:#000000;stroke-width:0.8;" x="63" xlink:href="#mdfbd4e7a3a" y="441"/>
      </g>
     </g>
     <g id="text_5">
      <!-- −4 -->
      <defs>
       <path d="M 37.796875 64.3125 
L 12.890625 25.390625 
L 37.796875 25.390625 
z
M 35.203125 72.90625 
L 47.609375 72.90625 
L 47.609375 25.390625 
L 58.015625 25.390625 
L 58.015625 17.1875 
L 47.609375 17.1875 
L 47.609375 0 
L 37.796875 0 
L 37.796875 17.1875 
L 4.890625 17.1875 
L 4.890625 26.703125 
z
" id="DejaVuSans-34"/>
      </defs>
      <g transform="translate(41.257812 444.799219)scale(0.1 -0.1)">
       <use xlink:href="#DejaVuSans-2212"/>
       <use x="83.789062" xlink:href="#DejaVuSans-34"/>
      </g>
     </g>
    </g>
    <g id="ytick_2">
     <g id="line2d_5">
      <g>
       <use style="stroke:#000000;stroke-width:0.8;" x="63" xlink:href="#mdfbd4e7a3a" y="386.64"/>
      </g>
     </g>
     <g id="text_6">
      <!-- −3 -->
      <defs>
       <path d="M 40.578125 39.3125 
Q 47.65625 37.796875 51.625 33 
Q 55.609375 28.21875 55.609375 21.1875 
Q 55.609375 10.40625 48.1875 4.484375 
Q 40.765625 -1.421875 27.09375 -1.421875 
Q 22.515625 -1.421875 17.65625 -0.515625 
Q 12.796875 0.390625 7.625 2.203125 
L 7.625 11.71875 
Q 11.71875 9.328125 16.59375 8.109375 
Q 21.484375 6.890625 26.8125 6.890625 
Q 36.078125 6.890625 40.9375 10.546875 
Q 45.796875 14.203125 45.796875 21.1875 
Q 45.796875 27.640625 41.28125 31.265625 
Q 36.765625 34.90625 28.71875 34.90625 
L 20.21875 34.90625 
L 20.21875 43.015625 
L 29.109375 43.015625 
Q 36.375 43.015625 40.234375 45.921875 
Q 44.09375 48.828125 44.09375 54.296875 
Q 44.09375 59.90625 40.109375 62.90625 
Q 36.140625 65.921875 28.71875 65.921875 
Q 24.65625 65.921875 20.015625 65.03125 
Q 15.375 64.15625 9.8125 62.3125 
L 9.8125 71.09375 
Q 15.4375 72.65625 20.34375 73.4375 
Q 25.25 74.21875 29.59375 74.21875 
Q 40.828125 74.21875 47.359375 69.109375 
Q 53.90625 64.015625 53.90625 55.328125 
Q 53.90625 49.265625 50.4375 45.09375 
Q 46.96875 40.921875 40.578125 39.3125 
z
" id="DejaVuSans-33"/>
      </defs>
      <g transform="translate(41.257812 390.439219)scale(0.1 -0.1)">
       <use xlink:href="#DejaVuSans-2212"/>
       <use x="83.789062" xlink:href="#DejaVuSans-33"/>
      </g>
     </g>
    </g>
    <g id="ytick_3">
     <g id="line2d_6">
      <g>
       <use style="stroke:#000000;stroke-width:0.8;" x="63" xlink:href="#mdfbd4e7a3a" y="332.28"/>
      </g>
     </g>
     <g id="text_7">
      <!-- −2 -->
      <defs>
       <path d="M 19.1875 8.296875 
L 53.609375 8.296875 
L 53.609375 0 
L 7.328125 0 
L 7.328125 8.296875 
Q 12.9375 14.109375 22.625 23.890625 
Q 32.328125 33.6875 34.8125 36.53125 
Q 39.546875 41.84375 41.421875 45.53125 
Q 43.3125 49.21875 43.3125 52.78125 
Q 43.3125 58.59375 39.234375 62.25 
Q 35.15625 65.921875 28.609375 65.921875 
Q 23.96875 65.921875 18.8125 64.3125 
Q 13.671875 62.703125 7.8125 59.421875 
L 7.8125 69.390625 
Q 13.765625 71.78125 18.9375 73 
Q 24.125 74.21875 28.421875 74.21875 
Q 39.75 74.21875 46.484375 68.546875 
Q 53.21875 62.890625 53.21875 53.421875 
Q 53.21875 48.921875 51.53125 44.890625 
Q 49.859375 40.875 45.40625 35.40625 
Q 44.1875 33.984375 37.640625 27.21875 
Q 31.109375 20.453125 19.1875 8.296875 
z
" id="DejaVuSans-32"/>
      </defs>
      <g transform="translate(41.257812 336.079219)scale(0.1 -0.1)">
       <use xlink:href="#DejaVuSans-2212"/>
       <use x="83.789062" xlink:href="#DejaVuSans-32"/>
      </g>
     </g>
    </g>
    <g id="ytick_4">
     <g id="line2d_7">
      <g>
       <use style="stroke:#000000;stroke-width:0.8;" x="63" xlink:href="#mdfbd4e7a3a" y="277.92"/>
      </g>
     </g>
     <g id="text_8">
      <!-- −1 -->
      <g transform="translate(41.257812 281.719219)scale(0.1 -0.1)">
       <use xlink:href="#DejaVuSans-2212"/>
       <use x="83.789062" xlink:href="#DejaVuSans-31"/>
      </g>
     </g>
    </g>
    <g id="ytick_5">
     <g id="line2d_8">
      <g>
       <use style="stroke:#000000;stroke-width:0.8;" x="63" xlink:href="#mdfbd4e7a3a" y="223.56"/>
      </g>
     </g>
     <g id="text_9">
      <!-- 0 -->
      <g transform="translate(49.6375 227.359219)scale(0.1 -0.1)">
       <use xlink:href="#DejaVuSans-30"/>
      </g>
     </g>
    </g>
    <g id="ytick_6">
     <g id="line2d_9">
      <g>
       <use style="stroke:#000000;stroke-width:0.8;" x="63" xlink:href="#mdfbd4e7a3a" y="169.2"/>
      </g>
     </g>
     <g id="text_10">
      <!-- 1 -->
      <g transform="translate(49.6375 172.999219)scale(0.1 -0.1)">
       <use xlink:href="#DejaVuSans-31"/>
      </g>
     </g>
    </g>
    <g id="ytick_7">
     <g id="line2d_10">
      <g>
       <use style="stroke:#000000;stroke-width:0.8;" x="63" xlink:href="#mdfbd4e7a3a" y="114.84"/>
      </g>
     </g>
     <g id="text_11">
      <!-- 2 -->
      <g transform="translate(49.6375 118.639219)scale(0.1 -0.1)">
       <use xlink:href="#DejaVuSans-32"/>
      </g>
     </g>
    </g>
    <g id="ytick_8">
     <g id="line2d_11">
      <g>
       <use style="stroke:#000000;stroke-width:0.8;" x="63" xlink:href="#mdfbd4e7a3a" y="60.48"/>
      </g>
     </g>
     <g id="text_12">
      <!-- 3 -->
      <g transform="translate(49.6375 64.279219)scale(0.1 -0.1)">
       <use xlink:href="#DejaVuSans-33"/>
      </g>
     </g>
    </g>
    <g id="text_13">
     <!-- $f(x)$ -->
     <defs>
      <path d="M 47.796875 75.984375 
L 46.390625 68.5 
L 37.796875 68.5 
Q 32.90625 68.5 30.6875 66.578125 
Q 28.46875 64.65625 27.390625 59.515625 
L 26.421875 54.6875 
L 41.21875 54.6875 
L 39.890625 47.703125 
L 25.09375 47.703125 
L 15.828125 0 
L 6.78125 0 
L 16.109375 47.703125 
L 7.515625 47.703125 
L 8.796875 54.6875 
L 17.390625 54.6875 
L 18.109375 58.5 
Q 19.96875 68.171875 24.625 72.078125 
Q 29.296875 75.984375 39.3125 75.984375 
z
" id="DejaVuSans-Oblique-66"/>
      <path d="M 31 75.875 
Q 24.46875 64.65625 21.28125 53.65625 
Q 18.109375 42.671875 18.109375 31.390625 
Q 18.109375 20.125 21.3125 9.0625 
Q 24.515625 -2 31 -13.1875 
L 23.1875 -13.1875 
Q 15.875 -1.703125 12.234375 9.375 
Q 8.59375 20.453125 8.59375 31.390625 
Q 8.59375 42.28125 12.203125 53.3125 
Q 15.828125 64.359375 23.1875 75.875 
z
" id="DejaVuSans-28"/>
      <path d="M 8.015625 75.875 
L 15.828125 75.875 
Q 23.140625 64.359375 26.78125 53.3125 
Q 30.421875 42.28125 30.421875 31.390625 
Q 30.421875 20.453125 26.78125 9.375 
Q 23.140625 -1.703125 15.828125 -13.1875 
L 8.015625 -13.1875 
Q 14.5 -2 17.703125 9.0625 
Q 20.90625 20.125 20.90625 31.390625 
Q 20.90625 42.671875 17.703125 53.65625 
Q 14.5 64.65625 8.015625 75.875 
z
" id="DejaVuSans-29"/>
     </defs>
     <g transform="translate(33.098438 268.04)rotate(-90)scale(0.2 -0.2)">
      <use transform="translate(0 0.015625)" xlink:href="#DejaVuSans-Oblique-66"/>
      <use transform="translate(35.205078 0.015625)" xlink:href="#DejaVuSans-28"/>
      <use transform="translate(74.21875 0.015625)" xlink:href="#DejaVuSans-Oblique-78"/>
      <use transform="translate(133.398438 0.015625)" xlink:href="#DejaVuSans-29"/>
     </g>
    </g>
   </g>
   <g id="line2d_12">
    <path clip-path="url(#p4482244461)" d="M 80.754545 227.440797 
L 84.341322 228.100341 
L 87.928099 228.836101 
L 91.514876 229.649416 
L 95.101653 230.539969 
L 98.68843 231.505472 
L 102.275207 232.541364 
L 105.861983 233.640528 
L 109.44876 234.793042 
L 113.035537 235.985977 
L 116.622314 237.203253 
L 120.209091 238.425572 
L 123.795868 239.630435 
L 127.382645 240.792244 
L 130.969421 241.882519 
L 134.556198 242.870199 
L 138.142975 243.722066 
L 141.729752 244.403259 
L 145.316529 244.877885 
L 148.903306 245.109718 
L 152.490083 245.062974 
L 156.07686 244.70314 
L 159.663636 243.997846 
L 163.250413 242.917762 
L 166.83719 241.437491 
L 170.423967 239.536447 
L 174.010744 237.19968 
L 177.597521 234.41864 
L 181.184298 231.191843 
L 184.771074 227.525422 
L 188.357851 223.433537 
L 191.944628 218.93862 
L 195.531405 214.071439 
L 199.118182 208.870957 
L 202.704959 203.383978 
L 206.291736 197.664567 
L 209.878512 191.773238 
L 213.465289 185.775927 
L 217.052066 179.742744 
L 220.638843 173.746544 
L 224.22562 167.861336 
L 227.812397 162.160575 
L 231.399174 156.715389 
L 234.98595 151.592794 
L 238.572727 146.853965 
L 242.159504 142.552618 
L 245.746281 138.733588 
L 249.333058 135.431636 
L 252.919835 132.670578 
L 256.506612 130.462742 
L 260.093388 128.808813 
L 263.680165 127.698075 
L 267.266942 127.109035 
L 270.853719 127.010431 
L 274.440496 127.362569 
L 278.027273 128.118944 
L 281.61405 129.228073 
L 285.200826 130.635464 
L 288.787603 132.285627 
L 292.37438 134.124052 
L 295.961157 136.099055 
L 299.547934 138.163421 
L 303.134711 140.275774 
L 306.721488 142.401621 
L 310.308264 144.514033 
L 313.895041 146.593948 
L 317.481818 148.630104 
L 321.068595 150.618606 
L 324.655372 152.562188 
L 328.242149 154.469211 
L 331.828926 156.352457 
L 335.415702 158.227801 
L 339.002479 160.112825 
L 342.589256 162.025451 
L 346.176033 163.982663 
L 349.76281 165.999367 
L 353.349587 168.087448 
L 356.936364 170.255049 
L 360.52314 172.506097 
L 364.109917 174.840079 
L 367.696694 177.252067 
L 371.283471 179.732959 
L 374.870248 182.269916 
L 378.457025 184.846965 
L 382.043802 187.445697 
L 385.630579 190.046058 
L 389.217355 192.627141 
L 392.804132 195.167986 
L 396.390909 197.648307 
L 399.977686 200.049155 
L 403.564463 202.353466 
L 407.15124 204.546492 
L 410.738017 206.616106 
L 414.324793 208.552979 
L 417.91157 210.350636 
L 421.498347 212.005406 
L 425.085124 213.516268 
L 428.671901 214.884632 
L 432.258678 216.114049 
L 435.845455 217.209898 
" style="fill:none;stroke:#0000ff;stroke-linecap:square;stroke-width:3;"/>
   </g>
   <g id="line2d_13">
    <path clip-path="url(#p4482244461)" d="M 80.754545 216.203174 
L 84.341322 214.940908 
L 87.928099 213.527789 
L 91.514876 211.958988 
L 95.101653 210.232179 
L 98.68843 208.347993 
L 102.275207 206.310442 
L 105.861983 204.127284 
L 109.44876 201.810308 
L 113.035537 199.375517 
L 116.622314 196.843191 
L 120.209091 194.237808 
L 123.795868 191.587811 
L 127.382645 188.925224 
L 130.969421 186.285101 
L 134.556198 183.704831 
L 138.142975 181.22331 
L 141.729752 178.879992 
L 145.316529 176.713877 
L 148.903306 174.762435 
L 152.490083 173.06054 
L 156.07686 171.639437 
L 159.663636 170.525787 
L 163.250413 169.740836 
L 166.83719 169.299743 
L 170.423967 169.211092 
L 174.010744 169.476612 
L 177.597521 170.091127 
L 181.184298 171.042717 
L 184.771074 172.313106 
L 188.357851 173.878245 
L 191.944628 175.709069 
L 195.531405 177.772394 
L 199.118182 180.031915 
L 202.704959 182.449263 
L 206.291736 184.985078 
L 209.878512 187.600063 
L 213.465289 190.255964 
L 217.052066 192.916463 
L 220.638843 195.547943 
L 224.22562 198.120113 
L 227.812397 200.606472 
L 231.399174 202.984623 
L 234.98595 205.236424 
L 238.572727 207.347995 
L 242.159504 209.309591 
L 245.746281 211.11537 
L 249.333058 212.763058 
L 252.919835 214.25356 
L 256.506612 215.590511 
L 260.093388 216.779816 
L 263.680165 217.829183 
L 267.266942 218.747666 
L 270.853719 219.545246 
L 274.440496 220.232437 
L 278.027273 220.819955 
L 281.61405 221.318426 
L 285.200826 221.73815 
L 288.787603 222.08892 
L 292.37438 222.379886 
L 295.961157 222.619463 
L 299.547934 222.815282 
L 303.134711 222.97417 
L 306.721488 223.102158 
L 310.308264 223.204513 
L 313.895041 223.285782 
L 317.481818 223.349849 
L 321.068595 223.399995 
L 324.655372 223.438969 
L 328.242149 223.469045 
L 331.828926 223.492092 
L 335.415702 223.50963 
L 339.002479 223.522881 
L 342.589256 223.532824 
L 346.176033 223.540234 
L 349.76281 223.545716 
L 353.349587 223.549745 
L 356.936364 223.552686 
L 360.52314 223.554817 
L 364.109917 223.556351 
L 367.696694 223.557448 
L 371.283471 223.558227 
L 374.870248 223.558776 
L 378.457025 223.55916 
L 382.043802 223.559428 
L 385.630579 223.559613 
L 389.217355 223.55974 
L 392.804132 223.559826 
L 396.390909 223.559884 
L 399.977686 223.559924 
L 403.564463 223.55995 
L 407.15124 223.559968 
L 410.738017 223.559979 
L 414.324793 223.559986 
L 417.91157 223.559991 
L 421.498347 223.559995 
L 425.085124 223.559997 
L 428.671901 223.559998 
L 432.258678 223.559999 
L 435.845455 223.559999 
" style="fill:none;stroke:#ff0000;stroke-linecap:square;"/>
   </g>
   <g id="line2d_14">
    <path clip-path="url(#p4482244461)" d="M 80.754545 223.541764 
L 84.341322 223.534888 
L 87.928099 223.525644 
L 91.514876 223.513302 
L 95.101653 223.496941 
L 98.68843 223.475401 
L 102.275207 223.447243 
L 105.861983 223.41069 
L 109.44876 223.363574 
L 113.035537 223.303273 
L 116.622314 223.226644 
L 120.209091 223.12996 
L 123.795868 223.008845 
L 127.382645 222.858217 
L 130.969421 222.67224 
L 134.556198 222.444286 
L 138.142975 222.166926 
L 141.729752 221.831937 
L 145.316529 221.430347 
L 148.903306 220.952512 
L 152.490083 220.388242 
L 156.07686 219.726975 
L 159.663636 218.957992 
L 163.250413 218.070697 
L 166.83719 217.054943 
L 170.423967 215.901405 
L 174.010744 214.601997 
L 177.597521 213.150321 
L 181.184298 211.542128 
L 184.771074 209.77579 
L 188.357851 207.852746 
L 191.944628 205.777913 
L 195.531405 203.560033 
L 199.118182 201.211936 
L 202.704959 198.750694 
L 206.291736 196.197649 
L 209.878512 193.578298 
L 213.465289 190.922023 
L 217.052066 188.261661 
L 220.638843 185.632922 
L 224.22562 183.073654 
L 227.812397 180.622984 
L 231.399174 178.320352 
L 234.98595 176.204476 
L 238.572727 174.312276 
L 242.159504 172.677814 
L 245.746281 171.331273 
L 249.333058 170.298033 
L 252.919835 169.597876 
L 256.506612 169.244353 
L 260.093388 169.244353 
L 263.680165 169.597876 
L 267.266942 170.298033 
L 270.853719 171.331273 
L 274.440496 172.677814 
L 278.027273 174.312276 
L 281.61405 176.204476 
L 285.200826 178.320352 
L 288.787603 180.622984 
L 292.37438 183.073654 
L 295.961157 185.632922 
L 299.547934 188.261661 
L 303.134711 190.922023 
L 306.721488 193.578298 
L 310.308264 196.197649 
L 313.895041 198.750694 
L 317.481818 201.211936 
L 321.068595 203.560033 
L 324.655372 205.777913 
L 328.242149 207.852746 
L 331.828926 209.77579 
L 335.415702 211.542128 
L 339.002479 213.150321 
L 342.589256 214.601997 
L 346.176033 215.901405 
L 349.76281 217.054943 
L 353.349587 218.070697 
L 356.936364 218.957992 
L 360.52314 219.726975 
L 364.109917 220.388242 
L 367.696694 220.952512 
L 371.283471 221.430347 
L 374.870248 221.831937 
L 378.457025 222.166926 
L 382.043802 222.444286 
L 385.630579 222.67224 
L 389.217355 222.858217 
L 392.804132 223.008845 
L 396.390909 223.12996 
L 399.977686 223.226644 
L 403.564463 223.303273 
L 407.15124 223.363574 
L 410.738017 223.41069 
L 414.324793 223.447243 
L 417.91157 223.475401 
L 421.498347 223.496941 
L 425.085124 223.513302 
L 428.671901 223.525644 
L 432.258678 223.534888 
L 435.845455 223.541764 
" style="fill:none;stroke:#ff00ff;stroke-linecap:square;"/>
   </g>
   <g id="line2d_15">
    <path clip-path="url(#p4482244461)" d="M 80.754545 223.559999 
L 84.341322 223.559999 
L 87.928099 223.559998 
L 91.514876 223.559997 
L 95.101653 223.559995 
L 98.68843 223.559991 
L 102.275207 223.559986 
L 105.861983 223.559979 
L 109.44876 223.559968 
L 113.035537 223.55995 
L 116.622314 223.559924 
L 120.209091 223.559884 
L 123.795868 223.559826 
L 127.382645 223.55974 
L 130.969421 223.559613 
L 134.556198 223.559428 
L 138.142975 223.55916 
L 141.729752 223.558776 
L 145.316529 223.558227 
L 148.903306 223.557448 
L 152.490083 223.556351 
L 156.07686 223.554817 
L 159.663636 223.552686 
L 163.250413 223.549745 
L 166.83719 223.545716 
L 170.423967 223.540234 
L 174.010744 223.532824 
L 177.597521 223.522881 
L 181.184298 223.50963 
L 184.771074 223.492092 
L 188.357851 223.469045 
L 191.944628 223.438969 
L 195.531405 223.399995 
L 199.118182 223.349849 
L 202.704959 223.285782 
L 206.291736 223.204513 
L 209.878512 223.102158 
L 213.465289 222.97417 
L 217.052066 222.815282 
L 220.638843 222.619463 
L 224.22562 222.379886 
L 227.812397 222.08892 
L 231.399174 221.73815 
L 234.98595 221.318426 
L 238.572727 220.819955 
L 242.159504 220.232437 
L 245.746281 219.545246 
L 249.333058 218.747666 
L 252.919835 217.829183 
L 256.506612 216.779816 
L 260.093388 215.590511 
L 263.680165 214.25356 
L 267.266942 212.763058 
L 270.853719 211.11537 
L 274.440496 209.309591 
L 278.027273 207.347995 
L 281.61405 205.236424 
L 285.200826 202.984623 
L 288.787603 200.606472 
L 292.37438 198.120113 
L 295.961157 195.547943 
L 299.547934 192.916463 
L 303.134711 190.255964 
L 306.721488 187.600063 
L 310.308264 184.985078 
L 313.895041 182.449263 
L 317.481818 180.031915 
L 321.068595 177.772394 
L 324.655372 175.709069 
L 328.242149 173.878245 
L 331.828926 172.313106 
L 335.415702 171.042717 
L 339.002479 170.091127 
L 342.589256 169.476612 
L 346.176033 169.211092 
L 349.76281 169.299743 
L 353.349587 169.740836 
L 356.936364 170.525787 
L 360.52314 171.639437 
L 364.109917 173.06054 
L 367.696694 174.762435 
L 371.283471 176.713877 
L 374.870248 178.879992 
L 378.457025 181.22331 
L 382.043802 183.704831 
L 385.630579 186.285101 
L 389.217355 188.925224 
L 392.804132 191.587811 
L 396.390909 194.237808 
L 399.977686 196.843191 
L 403.564463 199.375517 
L 407.15124 201.810308 
L 410.738017 204.127284 
L 414.324793 206.310442 
L 417.91157 208.347993 
L 421.498347 210.232179 
L 425.085124 211.958988 
L 428.671901 213.527789 
L 432.258678 214.940908 
L 435.845455 216.203174 
" style="fill:none;stroke:#0000ff;stroke-linecap:square;"/>
   </g>
   <g id="patch_3">
    <path d="M 63 441 
L 63 60.48 
" style="fill:none;stroke:#000000;stroke-linecap:square;stroke-linejoin:miter;stroke-width:0.8;"/>
   </g>
   <g id="patch_4">
    <path d="M 453.6 441 
L 453.6 60.48 
" style="fill:none;stroke:#000000;stroke-linecap:square;stroke-linejoin:miter;stroke-width:0.8;"/>
   </g>
   <g id="patch_5">
    <path d="M 63 441 
L 453.6 441 
" style="fill:none;stroke:#000000;stroke-linecap:square;stroke-linejoin:miter;stroke-width:0.8;"/>
   </g>
   <g id="patch_6">
    <path d="M 63 60.48 
L 453.6 60.48 
" style="fill:none;stroke:#000000;stroke-linecap:square;stroke-linejoin:miter;stroke-width:0.8;"/>
   </g>
   <g id="text_14">
    <!-- $w_0 = [-0.53168597]$ -->
    <defs>
     <path d="M 8.5 54.6875 
L 17.390625 54.6875 
L 19.671875 10.6875 
L 40.09375 54.6875 
L 50.484375 54.6875 
L 53.515625 10.6875 
L 72.90625 54.6875 
L 81.890625 54.6875 
L 56.890625 0 
L 46.390625 0 
L 43.703125 45.3125 
L 22.796875 0 
L 12.203125 0 
z
" id="DejaVuSans-Oblique-77"/>
     <path d="M 10.59375 45.40625 
L 73.1875 45.40625 
L 73.1875 37.203125 
L 10.59375 37.203125 
z
M 10.59375 25.484375 
L 73.1875 25.484375 
L 73.1875 17.1875 
L 10.59375 17.1875 
z
" id="DejaVuSans-3d"/>
     <path d="M 8.59375 75.984375 
L 29.296875 75.984375 
L 29.296875 69 
L 17.578125 69 
L 17.578125 -6.203125 
L 29.296875 -6.203125 
L 29.296875 -13.1875 
L 8.59375 -13.1875 
z
" id="DejaVuSans-5b"/>
     <path d="M 10.6875 12.40625 
L 21 12.40625 
L 21 0 
L 10.6875 0 
z
" id="DejaVuSans-2e"/>
     <path d="M 10.796875 72.90625 
L 49.515625 72.90625 
L 49.515625 64.59375 
L 19.828125 64.59375 
L 19.828125 46.734375 
Q 21.96875 47.46875 24.109375 47.828125 
Q 26.265625 48.1875 28.421875 48.1875 
Q 40.625 48.1875 47.75 41.5 
Q 54.890625 34.8125 54.890625 23.390625 
Q 54.890625 11.625 47.5625 5.09375 
Q 40.234375 -1.421875 26.90625 -1.421875 
Q 22.3125 -1.421875 17.546875 -0.640625 
Q 12.796875 0.140625 7.71875 1.703125 
L 7.71875 11.625 
Q 12.109375 9.234375 16.796875 8.0625 
Q 21.484375 6.890625 26.703125 6.890625 
Q 35.15625 6.890625 40.078125 11.328125 
Q 45.015625 15.765625 45.015625 23.390625 
Q 45.015625 31 40.078125 35.4375 
Q 35.15625 39.890625 26.703125 39.890625 
Q 22.75 39.890625 18.8125 39.015625 
Q 14.890625 38.140625 10.796875 36.28125 
z
" id="DejaVuSans-35"/>
     <path d="M 33.015625 40.375 
Q 26.375 40.375 22.484375 35.828125 
Q 18.609375 31.296875 18.609375 23.390625 
Q 18.609375 15.53125 22.484375 10.953125 
Q 26.375 6.390625 33.015625 6.390625 
Q 39.65625 6.390625 43.53125 10.953125 
Q 47.40625 15.53125 47.40625 23.390625 
Q 47.40625 31.296875 43.53125 35.828125 
Q 39.65625 40.375 33.015625 40.375 
z
M 52.59375 71.296875 
L 52.59375 62.3125 
Q 48.875 64.0625 45.09375 64.984375 
Q 41.3125 65.921875 37.59375 65.921875 
Q 27.828125 65.921875 22.671875 59.328125 
Q 17.53125 52.734375 16.796875 39.40625 
Q 19.671875 43.65625 24.015625 45.921875 
Q 28.375 48.1875 33.59375 48.1875 
Q 44.578125 48.1875 50.953125 41.515625 
Q 57.328125 34.859375 57.328125 23.390625 
Q 57.328125 12.15625 50.6875 5.359375 
Q 44.046875 -1.421875 33.015625 -1.421875 
Q 20.359375 -1.421875 13.671875 8.265625 
Q 6.984375 17.96875 6.984375 36.375 
Q 6.984375 53.65625 15.1875 63.9375 
Q 23.390625 74.21875 37.203125 74.21875 
Q 40.921875 74.21875 44.703125 73.484375 
Q 48.484375 72.75 52.59375 71.296875 
z
" id="DejaVuSans-36"/>
     <path d="M 31.78125 34.625 
Q 24.75 34.625 20.71875 30.859375 
Q 16.703125 27.09375 16.703125 20.515625 
Q 16.703125 13.921875 20.71875 10.15625 
Q 24.75 6.390625 31.78125 6.390625 
Q 38.8125 6.390625 42.859375 10.171875 
Q 46.921875 13.96875 46.921875 20.515625 
Q 46.921875 27.09375 42.890625 30.859375 
Q 38.875 34.625 31.78125 34.625 
z
M 21.921875 38.8125 
Q 15.578125 40.375 12.03125 44.71875 
Q 8.5 49.078125 8.5 55.328125 
Q 8.5 64.0625 14.71875 69.140625 
Q 20.953125 74.21875 31.78125 74.21875 
Q 42.671875 74.21875 48.875 69.140625 
Q 55.078125 64.0625 55.078125 55.328125 
Q 55.078125 49.078125 51.53125 44.71875 
Q 48 40.375 41.703125 38.8125 
Q 48.828125 37.15625 52.796875 32.3125 
Q 56.78125 27.484375 56.78125 20.515625 
Q 56.78125 9.90625 50.3125 4.234375 
Q 43.84375 -1.421875 31.78125 -1.421875 
Q 19.734375 -1.421875 13.25 4.234375 
Q 6.78125 9.90625 6.78125 20.515625 
Q 6.78125 27.484375 10.78125 32.3125 
Q 14.796875 37.15625 21.921875 38.8125 
z
M 18.3125 54.390625 
Q 18.3125 48.734375 21.84375 45.5625 
Q 25.390625 42.390625 31.78125 42.390625 
Q 38.140625 42.390625 41.71875 45.5625 
Q 45.3125 48.734375 45.3125 54.390625 
Q 45.3125 60.0625 41.71875 63.234375 
Q 38.140625 66.40625 31.78125 66.40625 
Q 25.390625 66.40625 21.84375 63.234375 
Q 18.3125 60.0625 18.3125 54.390625 
z
" id="DejaVuSans-38"/>
     <path d="M 10.984375 1.515625 
L 10.984375 10.5 
Q 14.703125 8.734375 18.5 7.8125 
Q 22.3125 6.890625 25.984375 6.890625 
Q 35.75 6.890625 40.890625 13.453125 
Q 46.046875 20.015625 46.78125 33.40625 
Q 43.953125 29.203125 39.59375 26.953125 
Q 35.25 24.703125 29.984375 24.703125 
Q 19.046875 24.703125 12.671875 31.3125 
Q 6.296875 37.9375 6.296875 49.421875 
Q 6.296875 60.640625 12.9375 67.421875 
Q 19.578125 74.21875 30.609375 74.21875 
Q 43.265625 74.21875 49.921875 64.515625 
Q 56.59375 54.828125 56.59375 36.375 
Q 56.59375 19.140625 48.40625 8.859375 
Q 40.234375 -1.421875 26.421875 -1.421875 
Q 22.703125 -1.421875 18.890625 -0.6875 
Q 15.09375 0.046875 10.984375 1.515625 
z
M 30.609375 32.421875 
Q 37.25 32.421875 41.125 36.953125 
Q 45.015625 41.5 45.015625 49.421875 
Q 45.015625 57.28125 41.125 61.84375 
Q 37.25 66.40625 30.609375 66.40625 
Q 23.96875 66.40625 20.09375 61.84375 
Q 16.21875 57.28125 16.21875 49.421875 
Q 16.21875 41.5 20.09375 36.953125 
Q 23.96875 32.421875 30.609375 32.421875 
z
" id="DejaVuSans-39"/>
     <path d="M 8.203125 72.90625 
L 55.078125 72.90625 
L 55.078125 68.703125 
L 28.609375 0 
L 18.3125 0 
L 43.21875 64.59375 
L 8.203125 64.59375 
z
" id="DejaVuSans-37"/>
     <path d="M 30.421875 75.984375 
L 30.421875 -13.1875 
L 9.71875 -13.1875 
L 9.71875 -6.203125 
L 21.390625 -6.203125 
L 21.390625 69 
L 9.71875 69 
L 9.71875 75.984375 
z
" id="DejaVuSans-5d"/>
    </defs>
    <g transform="translate(45.534091 245.304)scale(0.2 -0.2)">
     <use transform="translate(0 0.015625)" xlink:href="#DejaVuSans-Oblique-77"/>
     <use transform="translate(81.787109 -16.390625)scale(0.7)" xlink:href="#DejaVuSans-30"/>
     <use transform="translate(148.540039 0.015625)" xlink:href="#DejaVuSans-3d"/>
     <use transform="translate(251.811523 0.015625)" xlink:href="#DejaVuSans-5b"/>
     <use transform="translate(290.825195 0.015625)" xlink:href="#DejaVuSans-2212"/>
     <use transform="translate(374.614258 0.015625)" xlink:href="#DejaVuSans-30"/>
     <use transform="translate(438.237305 0.015625)" xlink:href="#DejaVuSans-2e"/>
     <use transform="translate(470.024414 0.015625)" xlink:href="#DejaVuSans-35"/>
     <use transform="translate(533.647461 0.015625)" xlink:href="#DejaVuSans-33"/>
     <use transform="translate(597.270508 0.015625)" xlink:href="#DejaVuSans-31"/>
     <use transform="translate(660.893555 0.015625)" xlink:href="#DejaVuSans-36"/>
     <use transform="translate(724.516602 0.015625)" xlink:href="#DejaVuSans-38"/>
     <use transform="translate(788.139648 0.015625)" xlink:href="#DejaVuSans-35"/>
     <use transform="translate(851.68457 0.015625)" xlink:href="#DejaVuSans-39"/>
     <use transform="translate(915.307617 0.015625)" xlink:href="#DejaVuSans-37"/>
     <use transform="translate(978.930664 0.015625)" xlink:href="#DejaVuSans-5d"/>
    </g>
   </g>
   <g id="text_15">
    <!-- $w_1 = [1.68479019]$ -->
    <g transform="translate(164.8 155.61)scale(0.2 -0.2)">
     <use transform="translate(0 0.015625)" xlink:href="#DejaVuSans-Oblique-77"/>
     <use transform="translate(81.787109 -16.390625)scale(0.7)" xlink:href="#DejaVuSans-31"/>
     <use transform="translate(148.540039 0.015625)" xlink:href="#DejaVuSans-3d"/>
     <use transform="translate(251.811523 0.015625)" xlink:href="#DejaVuSans-5b"/>
     <use transform="translate(290.825195 0.015625)" xlink:href="#DejaVuSans-31"/>
     <use transform="translate(354.448242 0.015625)" xlink:href="#DejaVuSans-2e"/>
     <use transform="translate(386.235352 0.015625)" xlink:href="#DejaVuSans-36"/>
     <use transform="translate(449.858398 0.015625)" xlink:href="#DejaVuSans-38"/>
     <use transform="translate(513.481445 0.015625)" xlink:href="#DejaVuSans-34"/>
     <use transform="translate(577.104492 0.015625)" xlink:href="#DejaVuSans-37"/>
     <use transform="translate(640.727539 0.015625)" xlink:href="#DejaVuSans-39"/>
     <use transform="translate(704.350586 0.015625)" xlink:href="#DejaVuSans-30"/>
     <use transform="translate(767.973633 0.015625)" xlink:href="#DejaVuSans-31"/>
     <use transform="translate(831.59668 0.015625)" xlink:href="#DejaVuSans-39"/>
     <use transform="translate(895.219727 0.015625)" xlink:href="#DejaVuSans-5d"/>
    </g>
   </g>
   <g id="text_16">
    <!-- $w_2 = [0.85898176]$ -->
    <g transform="translate(275.765909 245.304)scale(0.2 -0.2)">
     <use transform="translate(0 0.015625)" xlink:href="#DejaVuSans-Oblique-77"/>
     <use transform="translate(81.787109 -16.390625)scale(0.7)" xlink:href="#DejaVuSans-32"/>
     <use transform="translate(148.540039 0.015625)" xlink:href="#DejaVuSans-3d"/>
     <use transform="translate(251.811523 0.015625)" xlink:href="#DejaVuSans-5b"/>
     <use transform="translate(290.825195 0.015625)" xlink:href="#DejaVuSans-30"/>
     <use transform="translate(354.448242 0.015625)" xlink:href="#DejaVuSans-2e"/>
     <use transform="translate(386.204102 0.015625)" xlink:href="#DejaVuSans-38"/>
     <use transform="translate(449.827148 0.015625)" xlink:href="#DejaVuSans-35"/>
     <use transform="translate(513.450195 0.015625)" xlink:href="#DejaVuSans-38"/>
     <use transform="translate(577.073242 0.015625)" xlink:href="#DejaVuSans-39"/>
     <use transform="translate(640.696289 0.015625)" xlink:href="#DejaVuSans-38"/>
     <use transform="translate(704.319336 0.015625)" xlink:href="#DejaVuSans-31"/>
     <use transform="translate(767.942383 0.015625)" xlink:href="#DejaVuSans-37"/>
     <use transform="translate(831.56543 0.015625)" xlink:href="#DejaVuSans-36"/>
     <use transform="translate(895.188477 0.015625)" xlink:href="#DejaVuSans-5d"/>
    </g>
   </g>
  </g>
 </g>
 <defs>
  <clipPath id="p4482244461">
   <rect height="380.52" width="390.6" x="63" y="60.48"/>
  </clipPath>
 </defs>
</svg>
